<svg  xmlns="http://www.w3.org/2000/svg" xmlns:xlink="http://www.w3.org/1999/xlink" width="42px" height="34px"><path fill-rule="evenodd"  fill="rgb(147, 197, 40)" d="M41.175,29.966 C40.685,30.213 40.089,30.160 39.642,29.828 L34.176,25.746 L34.176,30.606 C34.176,32.482 32.643,34.008 30.759,34.008 L3.424,34.008 C1.540,34.008 0.007,32.482 0.007,30.606 L0.007,3.389 C0.007,1.514 1.540,-0.013 3.424,-0.013 L30.759,-0.013 C32.643,-0.013 34.176,1.514 34.176,3.389 L34.176,9.221 L39.642,5.139 C40.087,4.805 40.682,4.751 41.175,5.001 C41.673,5.248 41.986,5.753 41.986,6.305 L41.986,28.662 C41.986,29.215 41.673,29.720 41.175,29.966 Z"/><path fill-rule="evenodd"  fill="rgb(255, 255, 255)" d="M15.222,13.000 L15.222,9.000 L17.994,9.000 L17.994,13.000 L15.222,13.000 ZM10.601,7.000 L13.373,7.000 L13.373,15.000 L10.601,15.000 L10.601,7.000 ZM5.981,9.000 L8.753,9.000 L8.753,13.000 L5.981,13.000 L5.981,9.000 Z"/></svg>