<svg  xmlns="http://www.w3.org/2000/svg" xmlns:xlink="http://www.w3.org/1999/xlink" width="22px" height="22px"><path fill-rule="evenodd"  fill="rgb(147, 197, 40)" d="M18.995,10.998 C22.032,14.275 21.016,16.435 20.836,16.749 C20.461,17.406 19.750,17.904 18.836,18.150 C18.425,18.261 17.922,18.335 17.316,18.335 C16.644,18.335 15.841,18.241 14.894,18.007 C13.932,20.856 12.384,22.000 10.980,22.000 C9.817,22.000 8.138,21.022 7.091,18.002 C6.133,18.240 5.323,18.335 4.645,18.335 C4.038,18.335 3.537,18.261 3.126,18.150 C2.211,17.904 1.500,17.406 1.124,16.748 C0.945,16.435 -0.056,14.278 2.974,11.008 C0.695,8.569 0.398,6.522 1.124,5.252 C1.490,4.612 2.192,4.125 3.101,3.880 C3.980,3.644 5.277,3.581 7.086,4.021 C8.132,0.983 9.815,-0.000 10.980,-0.000 C12.389,-0.000 13.945,1.144 14.906,4.013 C16.699,3.581 17.985,3.645 18.860,3.880 C19.770,4.125 20.471,4.612 20.836,5.252 C21.562,6.520 21.269,8.563 18.995,10.998 ZM18.577,17.185 C19.463,16.946 19.830,16.498 19.971,16.252 C20.399,15.503 20.289,13.873 18.290,11.707 C17.584,12.373 16.735,13.062 15.718,13.771 C15.609,15.022 15.421,16.099 15.181,17.036 C16.851,17.438 17.946,17.353 18.577,17.185 ZM7.325,7.516 C7.719,7.266 8.112,7.015 8.553,6.757 C9.002,6.495 9.426,6.266 9.843,6.045 C9.076,5.705 8.375,5.438 7.747,5.241 C7.576,5.905 7.430,6.654 7.325,7.516 ZM9.055,7.622 C8.375,8.019 7.772,8.405 7.206,8.785 C7.158,9.471 7.126,10.198 7.126,11.000 C7.126,11.807 7.161,12.531 7.209,13.220 C7.775,13.599 8.377,13.983 9.055,14.379 C9.734,14.775 10.371,15.120 10.971,15.421 C11.580,15.116 12.214,14.782 12.905,14.379 C13.586,13.982 14.191,13.596 14.758,13.216 C14.804,12.530 14.835,11.802 14.835,11.000 C14.835,10.196 14.802,9.473 14.755,8.786 C14.189,8.405 13.586,8.019 12.905,7.622 C12.219,7.221 11.588,6.889 10.981,6.585 C10.374,6.888 9.743,7.220 9.055,7.622 ZM6.162,9.521 C5.463,10.040 4.876,10.538 4.369,11.016 C4.875,11.487 5.473,11.979 6.168,12.491 C6.147,12.013 6.129,11.525 6.129,11.000 C6.129,10.484 6.141,9.993 6.162,9.521 ZM14.642,14.489 C14.250,14.738 13.841,14.989 13.408,15.242 C12.961,15.503 12.539,15.732 12.124,15.953 C12.890,16.294 13.603,16.578 14.229,16.776 C14.397,16.109 14.539,15.355 14.642,14.489 ZM15.801,12.485 C16.498,11.971 17.084,11.479 17.592,11.006 C17.087,10.531 16.490,10.034 15.795,9.518 C15.816,9.995 15.832,10.481 15.832,11.000 C15.832,11.516 15.821,12.010 15.801,12.485 ZM10.980,21.000 C11.861,21.000 13.113,20.191 13.947,17.737 C13.071,17.461 12.081,17.063 10.978,16.531 C9.887,17.055 8.899,17.457 8.029,17.733 C8.885,20.199 10.158,21.000 10.980,21.000 ZM9.845,15.959 C9.427,15.737 9.002,15.504 8.553,15.242 C8.123,14.991 7.716,14.741 7.327,14.494 C7.432,15.349 7.570,16.114 7.740,16.774 C8.369,16.574 9.075,16.301 9.845,15.959 ZM1.990,16.252 C2.130,16.498 2.498,16.946 3.384,17.185 C4.017,17.355 5.118,17.439 6.798,17.031 C6.556,16.113 6.375,15.024 6.260,13.782 C5.237,13.070 4.385,12.379 3.676,11.711 C1.677,13.875 1.562,15.503 1.990,16.252 ZM4.649,4.693 C4.099,4.693 3.675,4.761 3.359,4.846 C2.481,5.082 2.124,5.513 1.990,5.748 C1.531,6.553 1.655,8.170 3.663,10.316 C4.358,9.658 5.195,8.965 6.249,8.233 C6.362,6.976 6.553,5.902 6.796,4.977 C5.934,4.772 5.221,4.693 4.649,4.693 ZM10.980,1.000 C10.158,1.000 8.886,1.808 8.031,4.282 C8.902,4.554 9.888,4.952 10.979,5.475 C12.081,4.948 13.079,4.547 13.958,4.274 C13.122,1.807 11.864,1.000 10.980,1.000 ZM12.108,6.049 C12.533,6.275 12.951,6.490 13.408,6.757 C13.852,7.016 14.247,7.268 14.643,7.520 C14.541,6.662 14.407,5.895 14.241,5.234 C13.603,5.432 12.888,5.704 12.108,6.049 ZM19.971,5.748 C19.837,5.513 19.479,5.082 18.602,4.846 C18.286,4.762 17.861,4.693 17.312,4.693 C16.745,4.693 16.038,4.771 15.186,4.973 C15.423,5.901 15.597,6.994 15.707,8.229 C16.753,8.956 17.612,9.648 18.303,10.302 C20.303,8.163 20.430,6.551 19.971,5.748 Z"/></svg>