<svg  xmlns="http://www.w3.org/2000/svg" xmlns:xlink="http://www.w3.org/1999/xlink" width="40px" height="35px"><path fill-rule="evenodd"  fill="rgb(147, 197, 40)" d="M39.796,18.208 L30.493,34.288 C30.242,34.722 29.784,34.988 29.290,34.988 L10.685,34.988 C10.191,34.988 9.733,34.722 9.482,34.288 L0.179,18.208 C-0.078,17.764 -0.078,17.213 0.179,16.769 L9.482,0.688 C9.733,0.254 10.191,-0.012 10.685,-0.012 L29.290,-0.012 C29.784,-0.012 30.242,0.254 30.493,0.688 L39.796,16.769 C40.052,17.213 40.052,17.764 39.796,18.208 Z"/><path fill-rule="evenodd"  fill="rgb(255, 255, 255)" d="M19.984,11.302 C23.663,11.302 26.645,14.300 26.645,17.999 C26.645,21.698 23.663,24.696 19.984,24.696 C16.305,24.696 13.323,21.698 13.323,17.999 C13.323,14.300 16.305,11.302 19.984,11.302 Z"/></svg>