<svg  xmlns="http://www.w3.org/2000/svg" xmlns:xlink="http://www.w3.org/1999/xlink" width="20px" height="22px"><path fill-rule="evenodd"  fill="rgb(137, 137, 151)" d="M13.225,18.896 C13.095,20.606 11.706,21.960 10.000,21.960 C8.294,21.960 6.905,20.606 6.775,18.896 L0.000,18.896 L0.000,17.364 L2.250,17.364 L2.250,7.918 C2.250,3.553 5.726,0.003 10.000,0.003 C14.273,0.003 17.750,3.553 17.750,7.918 L17.750,17.364 L20.000,17.364 L20.000,18.896 L13.225,18.896 ZM10.000,20.428 C10.880,20.428 11.610,19.761 11.732,18.896 L8.268,18.896 C8.390,19.761 9.120,20.428 10.000,20.428 ZM16.250,7.918 C16.250,4.398 13.446,1.535 10.000,1.535 C6.554,1.535 3.750,4.398 3.750,7.918 L3.750,17.364 L7.500,17.364 L12.500,17.364 L16.250,17.364 L16.250,7.918 Z"/></svg>