<svg  xmlns="http://www.w3.org/2000/svg" xmlns:xlink="http://www.w3.org/1999/xlink" width="112.5px" height="95.5px"><path fill-rule="evenodd"  fill="rgb(133, 133, 147)" d="M63.500,4.500 C88.353,4.500 108.500,24.647 108.500,49.500 C108.500,74.353 88.353,94.500 63.500,94.500 C38.647,94.500 18.500,74.353 18.500,49.500 C18.500,24.647 38.647,4.500 63.500,4.500 Z"/><path fill-rule="evenodd"  stroke="rgb(96, 231, 247)" stroke-width="1px" stroke-linecap="butt" stroke-linejoin="miter" fill="none" d="M67.500,12.500 L59.500,33.500 L100.500,48.500 L108.500,29.500 L67.500,12.500 Z"/><path fill-rule="evenodd"  stroke="rgb(247, 96, 210)" stroke-width="1px" stroke-linecap="butt" stroke-linejoin="miter" fill="none" d="M61.500,59.500 C61.500,59.500 59.128,51.016 61.500,50.500 C63.872,49.984 66.248,56.970 66.500,57.500 C66.752,58.030 71.893,77.628 72.500,84.500 C73.107,91.372 73.620,92.060 72.500,92.500 C71.380,92.940 69.500,90.500 69.500,90.500 L61.500,59.500 Z"/><path fill-rule="evenodd"  stroke="rgb(247, 96, 210)" stroke-width="1px" stroke-linecap="butt" stroke-linejoin="miter" fill="none" d="M76.500,42.500 C78.544,42.500 78.500,49.249 78.500,50.500 C78.500,51.751 77.500,80.500 77.500,80.500 C77.500,80.500 77.094,86.500 76.500,86.500 C75.906,86.500 74.714,85.855 74.500,80.500 C74.286,75.145 73.240,54.721 73.500,52.500 C73.760,50.279 74.456,42.500 76.500,42.500 Z"/><path fill-rule="evenodd"  stroke="rgb(255, 255, 0)" stroke-width="1px" stroke-linecap="butt" stroke-linejoin="miter" fill="none" d="M109.500,60.500 L84.500,55.500 L80.500,80.500 L103.500,84.500 L109.500,60.500 Z"/><path fill-rule="evenodd"  stroke="rgb(107, 247, 96)" stroke-width="1px" stroke-linecap="butt" stroke-linejoin="miter" fill="none" d="M50.500,2.500 L52.500,15.500 L54.500,81.500 L27.500,82.500 L2.500,76.500 L13.500,23.500 L50.500,2.500 Z"/></svg>