<svg  t="1690305211597" class="fill-zinc-900 dark:fill-zinc-50" viewBox="0 0 1389 1024" version="1.1" xmlns="http://www.w3.org/2000/svg" p-id="2659" width="200" height="200"><path d="M885.321143 146.285714C960 146.285714 1024 209.554286 1024 289.353143v114.468571l224.256-153.014857 2.925714-2.852571c28.818286-16.676571 63.488-13.897143 92.306286 0 28.891429 16.749714 46.226286 44.617143 46.226286 78.043428v462.555429c0 33.426286-17.334857 61.293714-46.226286 78.043428a94.061714 94.061714 0 0 1-46.153143 11.117715c-14.482286 0-31.744-2.779429-46.226286-11.117715l-2.925714-2.779428L1024 710.729143v172.982857A139.337143 139.337143 0 0 1 885.321143 1024H138.678857C64 1024 0 960.731429 0 880.932571V289.353143C0 212.333714 61.366857 146.285714 138.678857 146.285714h746.642286zM141.312 223.305143c-34.669714 0-61.293714 30.281143-61.293714 63.268571v594.358857c0 35.766857 29.257143 63.268571 61.293714 63.268572h746.715429c34.669714 0 61.293714-30.281143 61.293714-63.268572V289.353143a63.049143 63.049143 0 0 0-61.293714-63.268572H141.312v-2.779428z m734.500571 562.468571c23.04 0 40.374857 16.676571 40.374858 38.985143a40.594286 40.594286 0 0 1-40.374858 39.058286H665.014857c-23.113143 0-40.448-16.749714-40.448-39.058286 0-22.308571 17.334857-38.985143 40.448-38.985143h210.797714z m415.744-470.893714l-216.502857 147.675429v186.660571l216.502857 150.454857c5.778286 2.779429 8.630857 0 11.556572 0 2.925714 0 5.778286-5.558857 5.778286-11.117714V325.997714c0-5.558857-2.925714-8.338286-5.851429-11.117714-2.852571 0-5.705143-2.779429-11.483429 0zM927.744 0c23.113143 0 40.448 16.749714 40.448 38.985143 0 22.308571-17.334857 39.058286-40.448 39.058286H116.443429C93.330286 78.043429 73.142857 61.293714 73.142857 38.985143 73.142857 16.822857 90.477714 0 113.590857 0h814.153143z" p-id="2660"></path></svg>